<svg width="40" height="40" viewBox="0 0 40 40" fill="none" xmlns="http://www.w3.org/2000/svg">
<g clip-path="url(#clip0_1_11)">
<path d="M20 3.33325C10.8 3.33325 3.33337 10.7999 3.33337 19.9999C3.33337 29.1999 10.8 36.6666 20 36.6666C29.2 36.6666 36.6667 29.1999 36.6667 19.9999C36.6667 10.7999 29.2 3.33325 20 3.33325ZM20 8.33325C22.7667 8.33325 25 10.5666 25 13.3333C25 16.0999 22.7667 18.3333 20 18.3333C17.2334 18.3333 15 16.0999 15 13.3333C15 10.5666 17.2334 8.33325 20 8.33325ZM20 31.9999C15.8334 31.9999 12.15 29.8666 10 26.6333C10.05 23.3166 16.6667 21.4999 20 21.4999C23.3167 21.4999 29.95 23.3166 30 26.6333C27.85 29.8666 24.1667 31.9999 20 31.9999Z" fill="#F1BC00"/>
</g>
<defs>
<clipPath id="clip0_1_11">
<rect width="40" height="40" fill="white"/>
</clipPath>
</defs>
</svg>
