<svg width="62" height="58" viewBox="0 0 62 58" fill="none" xmlns="http://www.w3.org/2000/svg">
<g clip-path="url(#clip0_1_67)">
<path d="M51.6668 14.5H43.9168V9.66668C43.9168 6.98418 41.6176 4.83334 38.7501 4.83334H23.2501C20.3826 4.83334 18.0834 6.98418 18.0834 9.66668V14.5H10.3334C7.46591 14.5 5.16675 16.6508 5.16675 19.3333V45.9167C5.16675 48.5992 7.46591 50.75 10.3334 50.75H51.6668C54.5343 50.75 56.8334 48.5992 56.8334 45.9167V19.3333C56.8334 16.6508 54.5343 14.5 51.6668 14.5ZM23.2501 9.66668H38.7501V14.5H23.2501V9.66668ZM51.6668 45.9167H10.3334V41.0833H51.6668V45.9167ZM51.6668 33.8333H10.3334V19.3333H18.0834V24.1667H23.2501V19.3333H38.7501V24.1667H43.9168V19.3333H51.6668V33.8333Z" fill="#21408E"/>
</g>
<defs>
<clipPath id="clip0_1_67">
<rect width="62" height="58" fill="white"/>
</clipPath>
</defs>
</svg>
