<svg width="26" height="24" viewBox="0 0 26 24" fill="none" xmlns="http://www.w3.org/2000/svg">
<g clip-path="url(#clip0_1_41)">
<path d="M9.91611 11H7.90212V13H9.91611V11ZM13.9441 11H11.9301V13H13.9441V11ZM17.9721 11H15.9581V13H17.9721V11ZM19.986 4H18.9791V2H16.9651V4H8.90911V2H6.89513V4H5.88813C4.77037 4 3.88422 4.9 3.88422 6L3.87415 20C3.87415 21.1 4.77037 22 5.88813 22H19.986C21.0937 22 22 21.1 22 20V6C22 4.9 21.0937 4 19.986 4ZM19.986 20H5.88813V9H19.986V20Z" fill="#F1BC00"/>
</g>
<defs>
<clipPath id="clip0_1_41">
<rect width="24.1678" height="24" fill="white" transform="translate(0.853149)"/>
</clipPath>
</defs>
</svg>
