<svg width="50" height="48" viewBox="0 0 50 48" fill="none" xmlns="http://www.w3.org/2000/svg">
<path d="M43.4452 26.262C43.5382 25.537 43.6002 24.7831 43.6002 24C43.6002 23.217 43.5382 22.4631 43.4142 21.7381L48.6532 17.91C49.1182 17.562 49.2422 16.924 48.9632 16.431L44.0032 8.39805C43.6932 7.87605 43.0422 7.70205 42.4842 7.87605L36.3152 10.196C35.0132 9.26805 33.6492 8.51405 32.1302 7.93405L31.2002 1.78605C31.1072 1.20605 30.5802 0.800049 29.9602 0.800049H20.0402C19.4202 0.800049 18.9242 1.20605 18.8312 1.78605L17.9012 7.93405C16.3822 8.51405 14.9872 9.29705 13.7162 10.196L7.54719 7.87605C6.98919 7.67305 6.3382 7.87605 6.0282 8.39805L1.06819 16.431C0.758194 16.953 0.882194 17.562 1.37819 17.91L6.6172 21.7381C6.4932 22.4631 6.40019 23.246 6.40019 24C6.40019 24.754 6.46219 25.537 6.58619 26.262L1.34719 30.0901C0.882194 30.4381 0.758194 31.076 1.03719 31.569L5.99719 39.6021C6.30719 40.1241 6.95819 40.298 7.51619 40.1241L13.6852 37.8041C14.9872 38.7321 16.3512 39.486 17.8702 40.0661L18.8002 46.2141C18.9242 46.794 19.4202 47.2001 20.0402 47.2001H29.9602C30.5802 47.2001 31.1072 46.794 31.1692 46.2141L32.0992 40.0661C33.6182 39.486 35.0132 38.7031 36.2842 37.8041L42.4532 40.1241C43.0112 40.3271 43.6622 40.1241 43.9722 39.6021L48.9322 31.569C49.2422 31.047 49.1182 30.4381 48.6222 30.0901L43.4452 26.262ZM25.0002 32.7001C19.8852 32.7001 15.7002 28.785 15.7002 24C15.7002 19.215 19.8852 15.3 25.0002 15.3C30.1152 15.3 34.3002 19.215 34.3002 24C34.3002 28.785 30.1152 32.7001 25.0002 32.7001Z" fill="#21408E"/>
</svg>
