<svg width="62" height="58" viewBox="0 0 62 58" fill="none" xmlns="http://www.w3.org/2000/svg">
<g clip-path="url(#clip0_1_73)">
<path d="M30.9741 4.83334C16.7141 4.83334 5.14081 15.66 5.14081 29C5.14081 42.34 16.7141 53.1667 30.9741 53.1667C45.2341 53.1667 56.8075 42.34 56.8075 29C56.8075 15.66 45.2341 4.83334 30.9741 4.83334ZM40.3 20.155C43.0641 20.155 45.2858 22.2333 45.2858 24.8192C45.2858 27.405 43.0641 29.4833 40.3 29.4833C37.5358 29.4833 35.3141 27.405 35.3141 24.8192C35.2883 22.2333 37.5358 20.155 40.3 20.155ZM24.8 16.3367C28.1583 16.3367 30.8966 18.8983 30.8966 22.04C30.8966 25.1817 28.1583 27.7433 24.8 27.7433C21.4416 27.7433 18.7033 25.1817 18.7033 22.04C18.7033 18.8742 21.4158 16.3367 24.8 16.3367ZM24.8 38.4008V47.4633C18.6 45.6508 13.6916 41.18 11.5216 35.4767C14.2341 32.77 21.0025 31.3925 24.8 31.3925C26.1691 31.3925 27.9 31.5858 29.7083 31.9242C25.4716 34.0267 24.8 36.8058 24.8 38.4008ZM30.9741 48.3333C30.2766 48.3333 29.605 48.3092 28.9333 48.2367V38.4008C28.9333 34.9692 36.5283 33.2533 40.3 33.2533C43.0641 33.2533 47.8433 34.1958 50.22 36.0325C47.1975 43.21 39.7316 48.3333 30.9741 48.3333Z" fill="#21408E"/>
</g>
<defs>
<clipPath id="clip0_1_73">
<rect width="62" height="58" fill="white"/>
</clipPath>
</defs>
</svg>
